<?xml version="1.0" encoding="utf-8"?>
<!-- Generator: Adobe Illustrator 28.0.0, SVG Export Plug-In . SVG Version: 6.00 Build 0)  -->
<svg version="1.1" id="图层_1" xmlns="http://www.w3.org/2000/svg" xmlns:xlink="http://www.w3.org/1999/xlink" x="0px" y="0px"
	 viewBox="0 0 30 30" style="enable-background:new 0 0 30 30;" xml:space="preserve">
<style type="text/css">
	.st0{fill:none;stroke:#333333;stroke-width:0.8;stroke-linecap:round;stroke-linejoin:round;stroke-miterlimit:10;}
</style>
<g>
		<rect x="9.4" y="6.2" transform="matrix(-1.836970e-16 1 -1 -1.836970e-16 20.6313 8.767752e-02)" class="st0" width="1.7" height="8.3"/>
	<path class="st0" d="M12.4,11.2v1.1h-1.3v2c0,0.6,0.5,1.1,1.1,1.1h7.9V17h-8.3c-1.2,0-2.2-1-2.2-2.2v-2.4H8.1v-1.1"/>
	<g>
		<line class="st0" x1="8.3" y1="8.1" x2="8.3" y2="9.4"/>
		<line class="st0" x1="12.2" y1="8.1" x2="12.2" y2="9.4"/>
	</g>
	<rect x="3.1" y="13.6" class="st0" width="1.7" height="8.3"/>
	<polyline class="st0" points="4.8,19.9 5.9,19.9 5.9,18.5 24.1,18.5 24.1,19.9 25.2,19.9 	"/>
	<g>
		<line class="st0" x1="1.7" y1="19.7" x2="3" y2="19.7"/>
		<line class="st0" x1="1.7" y1="15.8" x2="3" y2="15.8"/>
	</g>
		<rect x="25.2" y="13.6" transform="matrix(-1 -4.520441e-11 4.520441e-11 -1 52.1489 35.5262)" class="st0" width="1.7" height="8.3"/>
	<polyline class="st0" points="25.2,15.6 24.1,15.6 24.1,17 5.9,17 5.9,15.6 4.8,15.6 	"/>
	<g>
		<line class="st0" x1="28.3" y1="19.7" x2="27" y2="19.7"/>
		<line class="st0" x1="28.3" y1="15.8" x2="27" y2="15.8"/>
	</g>
</g>
</svg>
