<?xml version="1.0" encoding="utf-8"?>
<!-- Generator: Adobe Illustrator 28.0.0, SVG Export Plug-In . SVG Version: 6.00 Build 0)  -->
<svg version="1.1" id="图层_1" xmlns="http://www.w3.org/2000/svg" xmlns:xlink="http://www.w3.org/1999/xlink" x="0px" y="0px"
	 viewBox="0 0 30 30" style="enable-background:new 0 0 30 30;" xml:space="preserve">
<style type="text/css">
	.st0{fill:none;stroke:#333333;stroke-width:0.8;stroke-miterlimit:10;}
	.st1{fill:none;stroke:#333333;stroke-width:0.8;stroke-linecap:round;stroke-miterlimit:10;}
	.st2{fill:#333333;}
	.st3{fill:none;stroke:#333333;stroke-width:0.8;stroke-linecap:round;stroke-linejoin:round;stroke-miterlimit:10;}
</style>
<g>
	<circle class="st0" cx="5.7" cy="13" r="0.9"/>
	<circle class="st0" cx="5.7" cy="13" r="2.6"/>
	<path class="st1" d="M6,25.1c-0.5-0.5-0.5-1.4,0-1.9s1.4-0.5,1.9,0s0.5,1.4,0,1.9"/>
	<path class="st1" d="M3.2,25c0-2.1,1.7-3.8,3.8-3.8s3.8,1.7,3.8,3.8"/>
	<circle class="st2" cx="18.9" cy="3.9" r="0.6"/>
	<circle class="st0" cx="25.2" cy="10.1" r="1.5"/>
	<circle class="st0" cx="18.9" cy="3.9" r="1.9"/>
	<path class="st3" d="M26.7,18.9v-3.5c0-1.3-3.1-1.3-3.1,0v3.5c-1.5,0-2.1-2.5-2.1-4v-0.5c0-1.5,1.2-2.7,2.8-2.7H26
		c1.5,0,2.8,1.2,2.8,2.7v0.5C28.8,16.4,28.3,18.9,26.7,18.9z"/>
	<path class="st3" d="M10.8,25.1H3.2c-1.1,0-2,0.9-2,2v1h11.6v-1C12.8,26,11.9,25.1,10.8,25.1z"/>
	<line class="st3" x1="3.2" y1="13.7" x2="3.3" y2="24.1"/>
	<polyline class="st3" points="9.8,22.4 8.2,13.9 18.3,5.8 	"/>
	<line class="st3" x1="4.3" y1="10.8" x2="18" y2="2.2"/>
	<line class="st3" x1="19.3" y1="5.9" x2="24.1" y2="11.1"/>
	<line class="st3" x1="20.5" y1="2.9" x2="26.2" y2="9"/>
</g>
</svg>
